<svg width="16" height="16" viewBox="0 0 16 16" fill="none" xmlns="http://www.w3.org/2000/svg">
<path d="M4.66683 3.89605V4.49605C4.86485 4.49605 5.05011 4.39835 5.16196 4.23494L4.66683 3.89605ZM5.60434 2.52631L5.10921 2.18742V2.18742L5.60434 2.52631ZM10.396 2.52631L10.8911 2.18742V2.18742L10.396 2.52631ZM11.3335 3.89605L10.8384 4.23494C10.9502 4.39835 11.1355 4.49605 11.3335 4.49605V3.89605ZM9.40016 8.76618C9.40016 9.4959 8.78834 10.1142 8.00016 10.1142V11.3142C9.42112 11.3142 10.6002 10.1882 10.6002 8.76618H9.40016ZM8.00016 10.1142C7.21198 10.1142 6.60016 9.4959 6.60016 8.76618H5.40016C5.40016 10.1882 6.5792 11.3142 8.00016 11.3142V10.1142ZM6.60016 8.76618C6.60016 8.03646 7.21198 7.41813 8.00016 7.41813V6.21813C6.5792 6.21813 5.40016 7.34414 5.40016 8.76618H6.60016ZM8.00016 7.41813C8.78834 7.41813 9.40016 8.03646 9.40016 8.76618H10.6002C10.6002 7.34414 9.42112 6.21813 8.00016 6.21813V7.41813ZM5.16196 4.23494L6.09947 2.8652L5.10921 2.18742L4.1717 3.55716L5.16196 4.23494ZM6.71374 2.548H9.28658V1.348H6.71374V2.548ZM9.90085 2.8652L10.8384 4.23494L11.8286 3.55716L10.8911 2.18742L9.90085 2.8652ZM9.28658 2.548C9.5387 2.548 9.76783 2.67085 9.90085 2.8652L10.8911 2.18742C10.5296 1.65917 9.92608 1.348 9.28658 1.348V2.548ZM6.09947 2.8652C6.23249 2.67085 6.46163 2.548 6.71374 2.548V1.348C6.07425 1.348 5.47076 1.65917 5.10921 2.18742L6.09947 2.8652ZM14.0668 6.49345V11.0389H15.2668V6.49345H14.0668ZM12.0002 13.0363H4.00016V14.2363H12.0002V13.0363ZM1.9335 11.0389V6.49345H0.733496V11.0389H1.9335ZM4.00016 13.0363C2.84379 13.0363 1.9335 12.1273 1.9335 11.0389H0.733496C0.733496 12.8196 2.21102 14.2363 4.00016 14.2363V13.0363ZM14.0668 11.0389C14.0668 12.1273 13.1565 13.0363 12.0002 13.0363V14.2363C13.7893 14.2363 15.2668 12.8196 15.2668 11.0389H14.0668ZM12.0002 4.49605C13.1565 4.49605 14.0668 5.4051 14.0668 6.49345H15.2668C15.2668 4.71279 13.7893 3.29605 12.0002 3.29605V4.49605ZM4.00016 3.29605C2.21102 3.29605 0.733496 4.71279 0.733496 6.49345H1.9335C1.9335 5.4051 2.84379 4.49605 4.00016 4.49605V3.29605ZM4.00016 4.49605H4.66683V3.29605H4.00016V4.49605ZM12.0002 3.29605H11.3335V4.49605H12.0002V3.29605Z" fill="white"/>
<ellipse cx="8.00016" cy="3.89618" rx="0.666667" ry="0.64935" fill="white"/>
</svg>
