<svg width="13" height="18" viewBox="0 0 13 18" fill="none" xmlns="http://www.w3.org/2000/svg">
<path d="M6.78955 12.375C8.59705 12.375 10.0623 10.864 10.0623 9V3.375C10.0623 1.51102 8.59705 0 6.78955 0C4.98205 0 3.51682 1.51102 3.51682 3.375V9C3.51682 10.864 4.98205 12.375 6.78955 12.375ZM12.2441 6.75H11.6986C11.3973 6.75 11.1532 7.00172 11.1532 7.3125V9C11.1532 11.6297 8.95467 13.7398 6.35353 13.4782C4.08648 13.25 2.42591 11.1484 2.42591 8.79961V7.3125C2.42591 7.00172 2.18182 6.75 1.88046 6.75H1.33501C1.03364 6.75 0.789551 7.00172 0.789551 7.3125V8.72437C0.789551 11.8758 2.97035 14.6851 5.97137 15.1119V16.3125H4.06228C3.76091 16.3125 3.51682 16.5642 3.51682 16.875V17.4375C3.51682 17.7483 3.76091 18 4.06228 18H9.51682C9.81819 18 10.0623 17.7483 10.0623 17.4375V16.875C10.0623 16.5642 9.81819 16.3125 9.51682 16.3125H7.60773V15.1253C10.5297 14.7118 12.7896 12.1254 12.7896 9V7.3125C12.7896 7.00172 12.5455 6.75 12.2441 6.75Z" fill="#707B81"/>
</svg>
