<svg width="17" height="16" viewBox="0 0 17 16" fill="none" xmlns="http://www.w3.org/2000/svg">
<path d="M0.781878 5.14286C0.93343 5.14286 1.07878 5.08265 1.18594 4.97549C1.2931 4.86833 1.35331 4.72298 1.35331 4.57143V1.71429C1.35331 1.56273 1.41351 1.41739 1.52067 1.31022C1.62784 1.20306 1.77318 1.14286 1.92474 1.14286H5.06759C5.21914 1.14286 5.36449 1.08265 5.47165 0.97549C5.57882 0.868326 5.63902 0.722981 5.63902 0.571429C5.63902 0.419876 5.57882 0.274531 5.47165 0.167368C5.36449 0.0602039 5.21914 0 5.06759 0H1.92474C1.47008 0 1.03404 0.180612 0.712552 0.502103C0.391061 0.823594 0.210449 1.25963 0.210449 1.71429V4.57143C0.210449 4.72298 0.270653 4.86833 0.377817 4.97549C0.48498 5.08265 0.630326 5.14286 0.781878 5.14286ZM14.4962 0H11.3533C11.2018 0 11.0564 0.0602039 10.9492 0.167368C10.8421 0.274531 10.7819 0.419876 10.7819 0.571429C10.7819 0.722981 10.8421 0.868326 10.9492 0.97549C11.0564 1.08265 11.2018 1.14286 11.3533 1.14286H14.4962C14.6477 1.14286 14.7931 1.20306 14.9002 1.31022C15.0074 1.41739 15.0676 1.56273 15.0676 1.71429V4.57143C15.0676 4.72298 15.1278 4.86833 15.235 4.97549C15.3421 5.08265 15.4875 5.14286 15.639 5.14286C15.7906 5.14286 15.9359 5.08265 16.0431 4.97549C16.1502 4.86833 16.2104 4.72298 16.2104 4.57143V1.71429C16.2104 1.25963 16.0298 0.823594 15.7083 0.502103C15.3869 0.180612 14.9508 0 14.4962 0ZM15.639 10.8571C15.4875 10.8571 15.3421 10.9173 15.235 11.0245C15.1278 11.1317 15.0676 11.277 15.0676 11.4286V14.2857C15.0676 14.4373 15.0074 14.5826 14.9002 14.6898C14.7931 14.7969 14.6477 14.8571 14.4962 14.8571H11.3533C11.2018 14.8571 11.0564 14.9173 10.9492 15.0245C10.8421 15.1317 10.7819 15.277 10.7819 15.4286C10.7819 15.5801 10.8421 15.7255 10.9492 15.8326C11.0564 15.9398 11.2018 16 11.3533 16H14.4962C14.9508 16 15.3869 15.8194 15.7083 15.4979C16.0298 15.1764 16.2104 14.7404 16.2104 14.2857V11.4286C16.2104 11.277 16.1502 11.1317 16.0431 11.0245C15.9359 10.9173 15.7906 10.8571 15.639 10.8571ZM5.06759 14.8571H1.92474C1.77318 14.8571 1.62784 14.7969 1.52067 14.6898C1.41351 14.5826 1.35331 14.4373 1.35331 14.2857V11.4286C1.35331 11.277 1.2931 11.1317 1.18594 11.0245C1.07878 10.9173 0.93343 10.8571 0.781878 10.8571C0.630326 10.8571 0.48498 10.9173 0.377817 11.0245C0.270653 11.1317 0.210449 11.277 0.210449 11.4286V14.2857C0.210449 14.7404 0.391061 15.1764 0.712552 15.4979C1.03404 15.8194 1.47008 16 1.92474 16H5.06759C5.21914 16 5.36449 15.9398 5.47165 15.8326C5.57882 15.7255 5.63902 15.5801 5.63902 15.4286C5.63902 15.277 5.57882 15.1317 5.47165 15.0245C5.36449 14.9173 5.21914 14.8571 5.06759 14.8571ZM15.639 7.42857H0.781878C0.630326 7.42857 0.48498 7.48878 0.377817 7.59594C0.270653 7.7031 0.210449 7.84845 0.210449 8C0.210449 8.15155 0.270653 8.2969 0.377817 8.40406C0.48498 8.51123 0.630326 8.57143 0.781878 8.57143H15.639C15.7906 8.57143 15.9359 8.51123 16.0431 8.40406C16.1502 8.2969 16.2104 8.15155 16.2104 8C16.2104 7.84845 16.1502 7.7031 16.0431 7.59594C15.9359 7.48878 15.7906 7.42857 15.639 7.42857Z" fill="#707B81"/>
</svg>
