<svg width="123" height="46" viewBox="0 0 123 46" fill="none" xmlns="http://www.w3.org/2000/svg">
<g clip-path="url(#clip0_9314_7618)">
<path d="M11.2501 18.7656L8.00006 31.2056H0.0600586L1.67006 25.0856L11.2501 18.7656Z" fill="#072654"/>
<path d="M28.15 14.8154C30.01 14.8254 31.32 15.2354 32.06 16.0654C32.8 16.8954 32.98 18.0754 32.57 19.6254C32.3 20.6854 31.75 21.6554 30.98 22.4254C30.18 23.2254 29.2 23.8054 28.11 24.1054C28.94 24.2954 29.45 24.8854 29.61 25.8954L29.64 26.1154L30.24 31.2054H26.54L25.92 25.7254C25.91 25.5454 25.86 25.3654 25.77 25.2054C25.68 25.0454 25.55 24.9154 25.4 24.8154C25.09 24.6554 24.75 24.5754 24.4 24.5654H24.19H21.91L20.17 31.1954H16.71L21.01 14.8154H28.15ZM122.94 19.1054L118.54 25.4454L113.35 32.9654L113.31 33.0054L112.15 34.6854L112.11 34.7454L112.06 34.8254L111.06 36.2654H107.62L111.64 30.5954L109.82 19.5054H113.39L114.29 26.7354L118.65 20.5454L118.71 20.4554L118.78 20.3554L118.85 20.2654L119.39 19.1154H122.94V19.1054ZM92.46 19.9854C93.12 20.5454 93.55 21.3154 93.7 22.1754C93.88 23.2454 93.8 24.3554 93.49 25.3954C93.2 26.5454 92.71 27.6254 92.03 28.5854C91.41 29.4654 90.61 30.1954 89.68 30.7154C88.8 31.1954 87.83 31.4454 86.83 31.4454C86.12 31.4754 85.42 31.2954 84.81 30.9354C84.34 30.6554 83.98 30.2254 83.78 29.7154L83.72 29.5154L81.95 36.2654H78.52L82.03 22.8654L82.05 22.8054L82.06 22.7454L82.92 19.4954H86.27L85.7 21.3754L85.69 21.4554C86.18 20.7554 86.84 20.1854 87.6 19.8154C88.36 19.4154 89.2 19.2154 90.05 19.2154C90.9 19.1654 91.76 19.4454 92.46 19.9854ZM88.32 21.8454C87.92 21.8354 87.52 21.9154 87.14 22.0654C86.77 22.2154 86.43 22.4454 86.14 22.7254C85.46 23.4254 84.99 24.3154 84.78 25.2654C84.48 26.3754 84.5 27.2154 84.8 27.7954C85.1 28.3754 85.67 28.6754 86.52 28.6754C87.33 28.6954 88.11 28.3854 88.7 27.8154C89.36 27.1254 89.82 26.2654 90.03 25.3254C90.32 24.2354 90.3 23.3654 90 22.7554C89.7 22.1454 89.14 21.8454 88.32 21.8454ZM103.72 19.7254C104.18 20.0154 104.54 20.4454 104.74 20.9554L104.81 21.1454L105.25 19.4854H108.61L105.53 31.1854H102.16L102.61 29.4554C102.1 30.0654 101.46 30.5454 100.74 30.8754C100.04 31.1954 99.29 31.3654 98.53 31.3654C97.65 31.4054 96.77 31.1554 96.05 30.6254C95.39 30.1054 94.95 29.3454 94.81 28.5154C94.63 27.4554 94.69 26.3754 95 25.3454C95.3 24.1954 95.8 23.1054 96.49 22.1354C97.12 21.2454 97.93 20.4954 98.87 19.9554C99.73 19.4554 100.71 19.1854 101.7 19.1854C102.42 19.1654 103.12 19.3454 103.72 19.7254ZM101.98 21.8754C101.57 21.8754 101.16 21.9554 100.79 22.1154C100.41 22.2754 100.07 22.5054 99.78 22.7954C99.11 23.5054 98.63 24.3854 98.42 25.3454C98.14 26.4254 98.14 27.2454 98.46 27.8354C98.77 28.4254 99.35 28.7054 100.21 28.7054C100.61 28.7154 101.01 28.6354 101.39 28.4854C101.77 28.3354 102.1 28.1054 102.39 27.8254C102.98 27.1954 103.41 26.4454 103.65 25.6054L103.73 25.2954C104.03 24.1854 104.02 23.3354 103.7 22.7654C103.39 22.1754 102.82 21.8754 101.98 21.8754ZM81.19 19.3654L81.41 19.4554L80.55 22.6454C80.06 22.3854 79.52 22.2554 78.98 22.2554C78.16 22.2254 77.36 22.4954 76.71 23.0054C76.15 23.4854 75.74 24.1254 75.53 24.8254L75.46 25.0954L73.86 31.2054H70.44L73.54 19.5054H76.91L76.47 21.2254C76.89 20.6454 77.43 20.1754 78.04 19.8254C78.72 19.4354 79.48 19.2354 80.26 19.2354C80.57 19.2154 80.89 19.2554 81.19 19.3654ZM68.56 19.9254C69.32 20.4054 69.87 21.1654 70.08 22.0454C70.33 23.1054 70.29 24.2254 69.97 25.2654C69.67 26.4454 69.14 27.5454 68.39 28.4854C67.68 29.3954 66.78 30.1154 65.75 30.6054C64.7 31.0954 63.56 31.3454 62.4 31.3354C61.18 31.3354 60.18 31.0954 59.4 30.6054C58.63 30.1254 58.08 29.3654 57.86 28.4854C57.62 27.4254 57.66 26.3054 57.97 25.2654C58.27 24.0954 58.8 22.9954 59.55 22.0454C60.26 21.1454 61.17 20.4154 62.21 19.9254C63.27 19.4354 64.43 19.1754 65.6 19.1954C66.63 19.1454 67.66 19.4054 68.56 19.9254ZM64.9 21.8354C64.09 21.8254 63.31 22.1354 62.72 22.6954C62.11 23.2754 61.65 24.1254 61.36 25.2654C60.76 27.5554 61.34 28.6954 63.1 28.6954C63.9 28.7154 64.67 28.4054 65.25 27.8454C65.85 27.2754 66.29 26.4154 66.59 25.2654C66.89 24.1354 66.9 23.2854 66.6 22.6954C66.31 22.1054 65.74 21.8354 64.9 21.8354ZM57.95 19.4954L57.35 21.8154L49.8 28.4854H55.86L55.14 31.2154H45.11L45.74 28.8054L53.17 22.2354H47.52L48.24 19.5054H57.95V19.4954ZM41.02 19.7254C41.48 20.0154 41.84 20.4454 42.04 20.9554L42.11 21.1454L42.55 19.4854H45.92L42.85 31.1854H39.48L39.93 29.4554C39.42 30.0554 38.79 30.5354 38.08 30.8654C37.37 31.1954 36.6 31.3654 35.81 31.3654C34.93 31.4054 34.07 31.1454 33.36 30.6254C32.7 30.1054 32.26 29.3454 32.12 28.5154C31.94 27.4554 32 26.3754 32.31 25.3454C32.6 24.1954 33.11 23.1054 33.8 22.1354C34.43 21.2454 35.24 20.4954 36.17 19.9554C37.03 19.4554 38.01 19.1954 39 19.1954C39.72 19.1754 40.42 19.3554 41.02 19.7254ZM39.29 21.8754C38.88 21.8754 38.48 21.9554 38.1 22.1154C37.72 22.2754 37.38 22.5054 37.09 22.7954C36.41 23.5054 35.94 24.3854 35.73 25.3454C35.45 26.4254 35.46 27.2454 35.77 27.8354C36.08 28.4254 36.66 28.7054 37.52 28.7054C37.92 28.7154 38.32 28.6354 38.7 28.4854C39.07 28.3354 39.42 28.1054 39.7 27.8254C40.29 27.2054 40.73 26.4454 40.96 25.6054L41.04 25.2954C41.33 24.1854 41.3 23.3554 41.01 22.7654C40.7 22.1754 40.12 21.8754 39.29 21.8754ZM26.91 17.5454H23.7L22.57 21.8254H25.78C26.79 21.8254 27.59 21.6554 28.13 21.3054C28.7 20.9354 29.11 20.3554 29.26 19.6754C29.46 18.9554 29.37 18.4054 28.99 18.0554C28.61 17.7254 27.92 17.5454 26.91 17.5454Z" fill="#072654"/>
<path d="M18.4602 9.73535L12.8202 31.2054H8.95017L12.7602 16.6654L6.92017 20.5154L7.96017 16.6854L18.4602 9.73535Z" fill="#3395FF"/>
</g>
<defs>
<clipPath id="clip0_9314_7618">
<rect width="122.88" height="26.53" fill="white" transform="translate(0.0600586 9.73535)"/>
</clipPath>
</defs>
</svg>
