<svg width="17" height="14" viewBox="0 0 17 14" fill="none" xmlns="http://www.w3.org/2000/svg">
<path d="M8.27461 3.87254L2.83356 8.27939V13.0357C2.83356 13.1588 2.88331 13.2769 2.97186 13.364C3.06041 13.4511 3.18051 13.5 3.30574 13.5L6.61281 13.4916C6.73764 13.491 6.85713 13.4418 6.94518 13.3548C7.03322 13.2678 7.08264 13.15 7.08264 13.0272V10.2496C7.08264 10.1265 7.13239 10.0084 7.22094 9.9213C7.30949 9.83422 7.42959 9.7853 7.55483 9.7853H9.44357C9.5688 9.7853 9.6889 9.83422 9.77745 9.9213C9.86601 10.0084 9.91576 10.1265 9.91576 10.2496V13.0252C9.91556 13.0863 9.92763 13.1469 9.95127 13.2034C9.97492 13.2599 10.0097 13.3112 10.0535 13.3545C10.0974 13.3978 10.1495 13.4321 10.2069 13.4555C10.2643 13.4789 10.3258 13.491 10.3879 13.491L13.6938 13.5C13.8191 13.5 13.9392 13.4511 14.0277 13.364C14.1163 13.2769 14.166 13.1588 14.166 13.0357V8.2762L8.72614 3.87254C8.66219 3.82185 8.58252 3.79421 8.50038 3.79421C8.41823 3.79421 8.33857 3.82185 8.27461 3.87254ZM16.8693 6.86781L14.4021 4.86796V0.848253C14.4021 0.755891 14.3648 0.667311 14.2984 0.602001C14.232 0.536691 14.1419 0.5 14.048 0.5H12.3953C12.3014 0.5 12.2113 0.536691 12.1449 0.602001C12.0785 0.667311 12.0412 0.755891 12.0412 0.848253V2.95547L9.39901 0.817781C9.14545 0.612596 8.82727 0.50041 8.4989 0.50041C8.17053 0.50041 7.85236 0.612596 7.5988 0.817781L0.128523 6.86781C0.0926624 6.89696 0.0629937 6.93277 0.0412118 6.97319C0.0194298 7.01362 0.00596157 7.05787 0.00157656 7.10342C-0.00280846 7.14896 0.0019757 7.19491 0.0156557 7.23864C0.0293357 7.28237 0.0516433 7.32302 0.0813041 7.35826L0.83385 8.25792C0.86343 8.29329 0.899814 8.32258 0.940918 8.3441C0.982022 8.36562 1.02704 8.37897 1.07339 8.38336C1.11975 8.38775 1.16653 8.38311 1.21106 8.36971C1.25558 8.3563 1.29699 8.33439 1.33289 8.30522L8.27461 2.68268C8.33857 2.63198 8.41823 2.60434 8.50038 2.60434C8.58252 2.60434 8.66219 2.63198 8.72614 2.68268L15.6682 8.30522C15.704 8.33439 15.7453 8.35633 15.7898 8.36978C15.8343 8.38323 15.881 8.38794 15.9273 8.38363C15.9736 8.37931 16.0186 8.36607 16.0597 8.34465C16.1009 8.32323 16.1373 8.29405 16.1669 8.25879L16.9195 7.35914C16.9491 7.32369 16.9713 7.28283 16.9848 7.23891C16.9983 7.19499 17.0029 7.14887 16.9982 7.10322C16.9936 7.05756 16.9798 7.01326 16.9576 6.97286C16.9355 6.93246 16.9055 6.89676 16.8693 6.86781Z" fill="#F8F9FA"/>
</svg>
