<svg width="26" height="26" viewBox="0 0 26 26" fill="none" xmlns="http://www.w3.org/2000/svg">
<g clip-path="url(#clip0_9518_508)">
<path d="M8.76921 20.7554C8.37364 20.7554 7.98696 20.8666 7.65807 21.0748C7.32917 21.283 7.07282 21.5789 6.92145 21.9251C6.77007 22.2713 6.73046 22.6523 6.80764 23.0198C6.88481 23.3874 7.07529 23.725 7.35499 23.99C7.6347 24.2549 7.99106 24.4354 8.37902 24.5085C8.76699 24.5816 9.16912 24.5441 9.53457 24.4007C9.90002 24.2573 10.2124 24.0144 10.4321 23.7028C10.6519 23.3913 10.7692 23.0249 10.7692 22.6502C10.7692 22.1477 10.5585 21.6657 10.1834 21.3104C9.80835 20.9551 9.29964 20.7554 8.76921 20.7554ZM22.7692 16.966H6.76921C6.41558 16.966 6.07645 16.8329 5.8264 16.596C5.57635 16.3591 5.43587 16.0378 5.43587 15.7028C5.43587 15.3678 5.57635 15.0465 5.8264 14.8096C6.07645 14.5727 6.41558 14.4397 6.76921 14.4397H18.0908C18.9594 14.437 19.8036 14.1678 20.4971 13.6723C21.1905 13.1768 21.6958 12.4817 21.9372 11.6913L24.0511 4.68164C24.1078 4.49364 24.1177 4.29575 24.08 4.10352C24.0422 3.9113 23.9579 3.72999 23.8336 3.57389C23.7094 3.41778 23.5486 3.29113 23.3639 3.20391C23.1791 3.11668 22.9756 3.07127 22.7692 3.07124H6.4213C6.14528 2.33527 5.63646 1.69782 4.96417 1.24574C4.29188 0.79366 3.48881 0.54894 2.66439 0.544922H1.43587C1.08225 0.544922 0.743112 0.678004 0.493063 0.914892C0.243015 1.15178 0.102539 1.47307 0.102539 1.80808C0.102539 2.14309 0.243015 2.46438 0.493063 2.70127C0.743112 2.93815 1.08225 3.07124 1.43587 3.07124H2.66439C2.95384 3.0722 3.23516 3.16195 3.46625 3.32707C3.69734 3.49218 3.86576 3.72377 3.94629 3.98715L4.15365 4.67525L4.15397 4.68164L6.34147 11.9349C5.32355 12.0387 4.38637 12.5082 3.72289 13.2469C3.05942 13.9856 2.72016 14.9371 2.77497 15.9056C2.82979 16.8742 3.27451 17.7859 4.01756 18.4531C4.7606 19.1203 5.74541 19.4923 6.76921 19.4923H22.7692C23.1228 19.4923 23.462 19.3592 23.712 19.1223C23.9621 18.8854 24.1025 18.5641 24.1025 18.2291C24.1025 17.8941 23.9621 17.5728 23.712 17.3359C23.462 17.0991 23.1228 16.966 22.7692 16.966ZM21.0016 5.59755L19.3734 10.9968C19.2929 11.2604 19.1245 11.4922 18.8932 11.6575C18.662 11.8227 18.3805 11.9125 18.0908 11.9133H9.10839L8.76847 10.7863L7.20443 5.59755H21.0016ZM19.4359 20.7554C19.0403 20.7554 18.6536 20.8666 18.3247 21.0748C17.9958 21.283 17.7395 21.5789 17.5881 21.9251C17.4367 22.2713 17.3971 22.6523 17.4743 23.0198C17.5515 23.3874 17.742 23.725 18.0217 23.99C18.3014 24.2549 18.6577 24.4354 19.0457 24.5085C19.4337 24.5816 19.8358 24.5441 20.2012 24.4007C20.5667 24.2573 20.879 24.0144 21.0988 23.7028C21.3186 23.3913 21.4359 23.0249 21.4359 22.6502C21.4359 22.1477 21.2252 21.6657 20.8501 21.3104C20.475 20.9551 19.9663 20.7554 19.4359 20.7554Z" fill="white"/>
</g>
<defs>
<clipPath id="clip0_9518_508">
<rect width="24.8571" height="24.8162" fill="white" transform="translate(0.236328 0.544922)"/>
</clipPath>
</defs>
</svg>
