<svg width="25" height="24" viewBox="0 0 25 24" fill="none" xmlns="http://www.w3.org/2000/svg">
<path fill-rule="evenodd" clip-rule="evenodd" d="M14.9379 4.65554C13.7407 3.67602 12.0191 3.67602 10.8219 4.65554L4.64718 9.70755C4.17787 10.0915 4.34696 10.8463 4.93523 10.9934C5.93119 11.2424 6.62988 12.1373 6.62988 13.1639V18.0027C6.62988 19.7976 8.08496 21.2527 9.87988 21.2527H15.8799C17.6748 21.2527 19.1299 19.7976 19.1299 18.0027V13.1639C19.1299 12.1373 19.8286 11.2424 20.8245 10.9934C21.4128 10.8463 21.5819 10.0915 21.1126 9.70755L14.9379 4.65554ZM9.872 3.4946C11.6217 2.063 14.138 2.063 15.8878 3.4946L22.0624 8.54661C23.4866 9.71183 22.9735 12.0023 21.1883 12.4486C20.8601 12.5307 20.6299 12.8256 20.6299 13.1639V18.0027C20.6299 20.626 18.5032 22.7527 15.8799 22.7527H9.87988C7.25653 22.7527 5.12988 20.626 5.12988 18.0027V13.1639C5.12988 12.8256 4.89964 12.5307 4.57143 12.4486C2.78628 12.0023 2.27317 9.71183 3.69733 8.54661L9.872 3.4946Z" fill="#5B9EE1"/>
<path fill-rule="evenodd" clip-rule="evenodd" d="M12.8799 14.7529C12.1895 14.7529 11.6299 15.3126 11.6299 16.0029C11.6299 16.6933 12.1895 17.2529 12.8799 17.2529C13.5702 17.2529 14.1299 16.6933 14.1299 16.0029C14.1299 15.3126 13.5702 14.7529 12.8799 14.7529ZM10.1299 16.0029C10.1299 14.4841 11.3611 13.2529 12.8799 13.2529C14.3987 13.2529 15.6299 14.4841 15.6299 16.0029C15.6299 17.5217 14.3987 18.7529 12.8799 18.7529C11.3611 18.7529 10.1299 17.5217 10.1299 16.0029Z" fill="#5B9EE1"/>
</svg>
