<svg width="25" height="24" viewBox="0 0 25 24" fill="none" xmlns="http://www.w3.org/2000/svg">
<path fill-rule="evenodd" clip-rule="evenodd" d="M8.26555 15.6989C7.07852 16.2924 6.62988 16.9736 6.62988 17.5029C6.62988 18.0323 7.07852 18.7135 8.26555 19.307C9.40771 19.8781 11.0381 20.2529 12.8799 20.2529C14.7217 20.2529 16.3521 19.8781 17.4942 19.307C18.6812 18.7135 19.1299 18.0323 19.1299 17.5029C19.1299 16.9736 18.6812 16.2924 17.4942 15.6989C16.3521 15.1278 14.7217 14.7529 12.8799 14.7529C11.0381 14.7529 9.40771 15.1278 8.26555 15.6989ZM7.59473 14.3572C8.98606 13.6616 10.8557 13.2529 12.8799 13.2529C14.9041 13.2529 16.7737 13.6616 18.165 14.3572C19.5115 15.0305 20.6299 16.0993 20.6299 17.5029C20.6299 18.9065 19.5115 19.9754 18.165 20.6486C16.7737 21.3443 14.9041 21.7529 12.8799 21.7529C10.8557 21.7529 8.98606 21.3443 7.59473 20.6486C6.24825 19.9754 5.12988 18.9065 5.12988 17.5029C5.12988 16.0993 6.24825 15.0305 7.59473 14.3572Z" fill="#707B81"/>
<path fill-rule="evenodd" clip-rule="evenodd" d="M12.8799 3.75293C11.085 3.75293 9.62988 5.208 9.62988 7.00293C9.62988 8.79785 11.085 10.2529 12.8799 10.2529C14.6748 10.2529 16.1299 8.79785 16.1299 7.00293C16.1299 5.208 14.6748 3.75293 12.8799 3.75293ZM8.12988 7.00293C8.12988 4.37958 10.2565 2.25293 12.8799 2.25293C15.5032 2.25293 17.6299 4.37958 17.6299 7.00293C17.6299 9.62628 15.5032 11.7529 12.8799 11.7529C10.2565 11.7529 8.12988 9.62628 8.12988 7.00293Z" fill="#707B81"/>
</svg>
