<svg width="110" height="110" viewBox="0 0 110 110" fill="none" xmlns="http://www.w3.org/2000/svg">
<g clip-path="url(#clip0_9330_7969)">
<path d="M87.4293 69.0171C95.0273 69.0171 101.209 75.1977 101.209 82.7967C101.209 90.3958 95.0271 96.5764 87.4293 96.5764C79.8316 96.5764 73.6497 90.3945 73.6497 82.7967C73.6497 75.199 79.8316 69.0171 87.4293 69.0171ZM87.4293 89.4502C91.0976 89.4502 94.0815 86.4663 94.0815 82.798C94.0815 79.1298 91.0976 76.1445 87.4293 76.1445C83.7611 76.1445 80.7771 79.1298 80.7771 82.798C80.7771 86.4663 83.7611 89.4502 87.4293 89.4502Z" fill="#5B9EE1"/>
<path d="M25.8961 69.0171C33.4952 69.0171 39.6758 75.1977 39.6758 82.7967C39.6758 90.3958 33.4939 96.5764 25.8961 96.5764C18.2982 96.5764 12.1165 90.3945 12.1165 82.7967C12.1163 75.199 18.2971 69.0171 25.8961 69.0171ZM25.8961 89.4502C29.5644 89.4502 32.5483 86.4663 32.5483 82.798C32.5483 79.1298 29.5644 76.1445 25.8961 76.1445C22.2279 76.1445 19.2426 79.1298 19.2426 82.798C19.2426 86.4663 22.2279 89.4502 25.8961 89.4502Z" fill="#5B9EE1"/>
<path d="M96.458 31.123C97.7919 31.123 99.0144 31.8679 99.6261 33.0545L109.604 52.4175C109.865 52.9222 110 53.4818 110 54.0497V82.7971C110 84.7654 108.405 86.3607 106.436 86.3607H97.7646V79.2332H102.873V54.9144L94.2853 38.2505H67.1168V31.123H96.458Z" fill="#5B9EE1"/>
<path d="M36.2311 79.2334H76.8574V86.3608H36.2311V79.2334Z" fill="#5B9EE1"/>
<path d="M3.56315 13.4233H67.1161C69.0845 13.4233 70.6797 15.0188 70.6797 16.987V82.7968H63.5522V20.5508H7.12676V79.2332H15.6797V86.3606H3.56315C1.59475 86.3606 -0.000473022 84.7652 -0.000473022 82.797V16.9872C-0.000473022 15.0188 1.59496 13.4233 3.56315 13.4233Z" fill="#5B9EE1"/>
<path d="M67.1159 50.6045H106.436V57.7319H67.1159V50.6045Z" fill="#5B9EE1"/>
<path d="M52.7933 35.1702C51.4853 33.6972 49.232 33.5653 47.7625 34.8732L30.0959 50.5654L23.0873 43.4666C21.7045 42.066 19.4476 42.0518 18.0481 43.4346C16.6475 44.8173 16.6333 47.0742 18.0161 48.4748L27.3994 57.978C28.0944 58.6824 29.015 59.0389 29.9367 59.0389C30.7802 59.0389 31.6247 58.7407 32.3006 58.1395L52.4951 40.2009C53.967 38.8943 54.1 36.6418 52.7933 35.1702Z" fill="#5B9EE1"/>
</g>
<defs>
<clipPath id="clip0_9330_7969">
<rect width="110" height="110" fill="white" transform="matrix(-1 0 0 1 110 0)"/>
</clipPath>
</defs>
</svg>
