<svg width="19" height="19" viewBox="0 0 19 19" fill="none" xmlns="http://www.w3.org/2000/svg">
<path d="M17.8299 4.22479L14.7474 1.14225C14.3451 0.764358 13.8179 0.547526 13.2661 0.533006C12.7143 0.518486 12.1765 0.70729 11.7549 1.0635L1.62974 11.1886C1.2661 11.5553 1.03968 12.036 0.988484 12.5499L0.504728 17.2412C0.489573 17.406 0.510955 17.5721 0.567348 17.7276C0.623741 17.8832 0.713758 18.0244 0.830982 18.1412C0.936103 18.2455 1.06077 18.328 1.19784 18.3839C1.33491 18.4399 1.48168 18.4683 1.62974 18.4674H1.73099L6.42229 18.0399C6.9362 17.9888 7.41684 17.7623 7.78356 17.3987L17.9087 7.27357C18.3017 6.85841 18.514 6.30438 18.4993 5.73291C18.4845 5.16143 18.2438 4.61911 17.8299 4.22479ZM6.21979 15.7899L2.84475 16.1049L3.14851 12.7299L9.50483 6.45231L12.5424 9.48985L6.21979 15.7899ZM14.0049 7.98233L10.9898 4.9673L13.1836 2.71727L16.2549 5.78856L14.0049 7.98233Z" fill="#5B9EE1"/>
</svg>
