<svg width="24" height="24" viewBox="0 0 24 24" fill="none" xmlns="http://www.w3.org/2000/svg">
<path d="M19.0238 17.0467L16.5439 16.3042L15.6537 14.7045C16.4557 13.9711 17.0126 13.0007 17.2003 11.9885L17.3114 11.3906H18.2609C19.1239 11.3906 19.8261 10.7598 19.8261 9.98438V7.03125C19.8261 3.15422 16.3153 0 12 0C7.67364 0 4.17391 3.14517 4.17391 7.03125V9.98438C4.17391 10.5954 4.61014 11.1165 5.21739 11.31V11.8594C5.21739 12.6348 5.91955 13.2656 6.78261 13.2656H7.2408C7.46697 13.707 7.75972 14.1159 8.11596 14.4832C8.18984 14.5595 8.2669 14.6334 8.34584 14.7054L7.45607 16.3042L4.97619 17.0467C2.0928 17.9106 0 20.6377 0 23.5312C0 23.7901 0.233583 24 0.521739 24H23.4783C23.7664 24 24 23.7901 24 23.5312C24 20.6377 21.9073 17.9106 19.0238 17.0467ZM18.7826 9.98438C18.7826 10.2428 18.5486 10.4531 18.2609 10.4531H17.4646C17.5972 9.53016 17.6856 8.54798 17.7211 7.58063C17.7222 7.55334 17.723 7.52681 17.7239 7.5H18.7826V9.98438ZM5.73913 10.4531C5.45144 10.4531 5.21739 10.2428 5.21739 9.98438V7.5H6.27642C6.27814 7.54889 6.27996 7.59802 6.282 7.64747C6.28205 7.64916 6.28216 7.6508 6.28221 7.65248C6.28221 7.65263 6.28221 7.65277 6.28221 7.65291C6.31873 8.59378 6.40597 9.55045 6.53556 10.4531H5.73913V10.4531ZM6.78261 12.3281C6.49492 12.3281 6.26087 12.1178 6.26087 11.8594V11.3906H6.68859L6.79962 11.9887C6.8208 12.1024 6.84683 12.2156 6.87694 12.3281H6.78261ZM6.26176 6.5625H5.23722C5.50148 3.42089 8.41967 0.9375 12 0.9375C15.5644 0.9375 18.4954 3.42056 18.7627 6.5625H17.7383C17.7007 3.97373 15.3543 1.875 12.467 1.875H11.5331C8.64584 1.875 6.29927 3.97373 6.26176 6.5625ZM11.533 2.8125H12.467C14.8048 2.8125 16.697 4.53052 16.6957 6.62859C16.6957 6.77611 16.6943 6.90455 16.6916 7.02141C16.6916 7.02291 16.6915 7.02445 16.6915 7.026L16.0389 6.94223C14.2661 6.7148 12.5921 5.96283 11.3254 4.8248C11.2276 4.73691 11.0949 4.6875 10.9565 4.6875C9.55534 4.6875 8.21405 5.26106 7.32741 6.23006C7.54591 4.32136 9.3419 2.8125 11.533 2.8125ZM7.95861 12.3281C7.69743 11.5475 7.39857 9.25064 7.33252 7.77877L8.03473 6.93755C8.67965 6.16523 9.68301 5.68537 10.7503 5.6303C12.1547 6.83105 13.9715 7.62398 15.8914 7.87027L16.6595 7.96889C16.6082 8.94788 16.5032 9.93028 16.3529 10.8338C16.3529 10.8341 16.3528 10.8344 16.3528 10.8347C16.305 11.1252 16.2673 11.3122 16.1711 11.8343C15.8948 13.3233 14.6582 14.6698 13.0257 15.0365C12.3538 15.1872 11.6461 15.1871 10.9746 15.0365C9.95525 14.8075 9.02061 14.1739 8.41743 13.2656H9.48104C9.69642 13.8112 10.2763 14.2031 10.9565 14.2031H12C12.8648 14.2031 13.5652 13.5739 13.5652 12.7969C13.5652 12.0215 12.8631 11.3906 12 11.3906H10.9565C10.2612 11.3906 9.68984 11.7941 9.48016 12.3281H7.95861ZM10.9126 15.9851C11.2705 16.0529 11.6354 16.0875 12 16.0875C12.2854 16.0875 12.5709 16.066 12.8532 16.0244L11.9313 16.9004L10.9126 15.9851ZM11.214 17.5818L9.55915 19.1541C9.10357 18.3706 8.7121 17.5553 8.39103 16.7205L9.01247 15.6038L11.214 17.5818ZM14.8991 15.445L15.6089 16.7205C15.2873 17.5566 14.8957 18.3723 14.4406 19.1548L12.6694 17.5635L14.8991 15.445ZM10.4348 12.7969C10.4348 12.5381 10.6684 12.3281 10.9565 12.3281H12C12.2877 12.3281 12.5217 12.5384 12.5217 12.7969C12.5217 13.0557 12.2881 13.2656 12 13.2656H10.9565C10.6688 13.2656 10.4348 13.0553 10.4348 12.7969ZM1.06435 23.0625C1.27111 20.7404 2.99124 18.6297 5.30619 17.9361L7.5024 17.2785C7.90477 18.2782 8.40323 19.2497 8.98743 20.1726C8.98842 20.1742 8.98936 20.1758 8.99035 20.1773L8.9904 20.1774C9.41723 20.8519 9.89765 21.511 10.4185 22.1368L11.0603 23.0625H1.06435ZM12 22.6447L11.2924 21.624C11.2845 21.6126 11.276 21.6015 11.2671 21.5907C10.8446 21.0844 10.4504 20.5548 10.0915 20.0128L11.9522 18.245L13.9127 20.0064C13.5514 20.5524 13.1559 21.0841 12.733 21.5906C12.7075 21.6212 12.7437 21.573 12 22.6447ZM12.9397 23.0625L13.5814 22.1368C14.1046 21.5087 14.5885 20.8443 15.0196 20.1619C15.0222 20.1577 15.0246 20.1535 15.0272 20.1494C15.0275 20.1489 15.0279 20.1484 15.0282 20.1479C15.605 19.2338 16.0982 18.2707 16.4976 17.2785L18.6938 17.9361C21.0088 18.6297 22.7289 20.7404 22.9357 23.0625H12.9397Z" fill="#707B81"/>
</svg>
