<svg width="25" height="24" viewBox="0 0 25 24" fill="none" xmlns="http://www.w3.org/2000/svg">
<path d="M20.1149 16.722C19.1241 16.722 18.2313 17.1441 17.6117 17.8155L12.0387 14.4107C12.1875 14.035 12.27 13.6269 12.27 13.2C12.27 12.7729 12.1875 12.3648 12.0387 11.9893L17.6117 8.58435C18.2313 9.25578 19.1241 9.67803 20.1149 9.67803C21.9815 9.67803 23.5 8.18015 23.5 6.33894C23.5 4.49772 21.9815 3 20.1149 3C18.2484 3 16.7299 4.49788 16.7299 6.33909C16.7299 6.76601 16.8125 7.1741 16.9612 7.54981L11.3883 10.9546C10.7687 10.2832 9.87594 9.86091 8.88507 9.86091C7.0185 9.86091 5.5 11.3589 5.5 13.2C5.5 15.0412 7.0185 16.5391 8.88507 16.5391C9.87594 16.5391 10.7687 16.117 11.3883 15.4454L16.9612 18.8502C16.8125 19.2259 16.7299 19.634 16.7299 20.0611C16.7299 21.9021 18.2484 23.4 20.1149 23.4C21.9815 23.4 23.5 21.9021 23.5 20.0611C23.5 18.2198 21.9815 16.722 20.1149 16.722ZM17.9642 6.33909C17.9642 5.16931 18.929 4.21757 20.1149 4.21757C21.3008 4.21757 22.2657 5.16931 22.2657 6.33909C22.2657 7.50888 21.3008 8.46062 20.1149 8.46062C18.929 8.46062 17.9642 7.50888 17.9642 6.33909ZM8.88507 15.3215C7.69902 15.3215 6.73418 14.3698 6.73418 13.2C6.73418 12.0302 7.69902 11.0785 8.88507 11.0785C10.071 11.0785 11.0356 12.0302 11.0356 13.2C11.0356 14.3698 10.071 15.3215 8.88507 15.3215ZM17.9642 20.0609C17.9642 18.8911 18.929 17.9394 20.1149 17.9394C21.3008 17.9394 22.2657 18.8911 22.2657 20.0609C22.2657 21.2307 21.3008 22.1824 20.1149 22.1824C18.929 22.1824 17.9642 21.2307 17.9642 20.0609Z" fill="black"/>
</svg>
