<svg width="14" height="14" viewBox="0 0 14 14" fill="none" xmlns="http://www.w3.org/2000/svg">
<path fill-rule="evenodd" clip-rule="evenodd" d="M1.0013 0C0.453022 0 0.00140017 0.451624 0.00140017 0.999905L6.6992e-05 9.66708C6.6992e-05 10.112 0.667334 10.112 0.667334 9.66708L0.668 0.999905C0.668 0.80959 0.810986 0.666603 1.0013 0.666603H10.3337C10.524 0.666603 10.667 0.80959 10.667 0.999905V6.99933C10.6603 7.44996 11.3403 7.44996 11.3336 6.99933V0.999905C11.3336 0.451624 10.882 0 10.3337 0H1.0013ZM3.0011 2.66641C2.9127 2.66641 2.82793 2.70153 2.76542 2.76403C2.70292 2.82654 2.6678 2.91132 2.6678 2.99971C2.6678 3.08811 2.70292 3.17289 2.76542 3.23539C2.82793 3.2979 2.9127 3.33302 3.0011 3.33302C3.0895 3.33302 3.17427 3.2979 3.23678 3.23539C3.29928 3.17289 3.3344 3.08811 3.3344 2.99971C3.3344 2.91132 3.29928 2.82654 3.23678 2.76403C3.17427 2.70153 3.0895 2.66641 3.0011 2.66641ZM4.30097 2.66708C3.86668 2.69708 3.89768 3.34501 4.33297 3.33368H8.3339C8.76886 3.32435 8.76886 2.67641 8.3339 2.66708H4.33297C4.32231 2.66658 4.31163 2.66658 4.30097 2.66708ZM3.0011 4.66622C2.9127 4.66622 2.82793 4.70134 2.76542 4.76384C2.70292 4.82635 2.6678 4.91113 2.6678 4.99952C2.6678 5.08792 2.70292 5.1727 2.76542 5.2352C2.82793 5.29771 2.9127 5.33283 3.0011 5.33283C3.0895 5.33283 3.17427 5.29771 3.23678 5.2352C3.29928 5.1727 3.3344 5.08792 3.3344 4.99952C3.3344 4.91113 3.29928 4.82635 3.23678 4.76384C3.17427 4.70134 3.0895 4.66622 3.0011 4.66622ZM8.37056 4.66622C8.35823 4.66622 8.3459 4.66622 8.3339 4.66756H4.33297C4.32231 4.66705 4.31163 4.66705 4.30097 4.66756C3.89234 4.71822 3.92101 5.32016 4.33297 5.33149H8.3339C8.79152 5.37182 8.82985 4.67589 8.37056 4.66622ZM4.33297 6.66536C3.89801 6.6747 3.89801 7.32264 4.33297 7.33197H8.3339C8.78786 7.34197 8.78786 6.65537 8.3339 6.66536H4.33297ZM3.0011 6.66603C2.9127 6.66603 2.82793 6.70115 2.76542 6.76365C2.70292 6.82616 2.6678 6.91094 2.6678 6.99933C2.6678 7.08773 2.70292 7.17251 2.76542 7.23501C2.82793 7.29752 2.9127 7.33263 3.0011 7.33263C3.0895 7.33263 3.17427 7.29752 3.23678 7.23501C3.29928 7.17251 3.3344 7.08773 3.3344 6.99933C3.3344 6.91094 3.29928 6.82616 3.23678 6.76365C3.17427 6.70115 3.0895 6.66603 3.0011 6.66603ZM3.0011 8.66584C2.9127 8.66584 2.82793 8.70096 2.76542 8.76346C2.70292 8.82597 2.6678 8.91075 2.6678 8.99914C2.6678 9.08754 2.70292 9.17232 2.76542 9.23482C2.82793 9.29733 2.9127 9.33244 3.0011 9.33244C3.0895 9.33244 3.17427 9.29733 3.23678 9.23482C3.29928 9.17232 3.3344 9.08754 3.3344 8.99914C3.3344 8.91075 3.29928 8.82597 3.23678 8.76346C3.17427 8.70096 3.0895 8.66584 3.0011 8.66584ZM4.33297 8.66584C3.87901 8.65584 3.87901 9.34244 4.33297 9.33244H7.66663C8.12059 9.34244 8.12059 8.65584 7.66663 8.66584H4.33297ZM3.0011 10.6657C2.9127 10.6657 2.82793 10.7008 2.76542 10.7633C2.70292 10.8258 2.6678 10.9106 2.6678 10.999C2.6678 11.0873 2.70292 11.1721 2.76542 11.2346C2.82793 11.2971 2.9127 11.3323 3.0011 11.3323C3.0895 11.3323 3.17427 11.2971 3.23678 11.2346C3.29928 11.1721 3.3344 11.0873 3.3344 10.999C3.3344 10.9106 3.29928 10.8258 3.23678 10.7633C3.17427 10.7008 3.0895 10.6657 3.0011 10.6657ZM4.30097 10.6657C3.85635 10.687 3.88801 11.3543 4.33297 11.3329H7.00003C7.44499 11.3329 7.44499 10.6657 7.00003 10.6657H4.33297C4.32231 10.6651 4.31163 10.6651 4.30097 10.6657ZM0.330034 10.993C0.285979 10.9934 0.242447 11.0025 0.201955 11.0199C0.161463 11.0373 0.124815 11.0625 0.0941303 11.0941C0.0634457 11.1257 0.0393333 11.1631 0.0231877 11.2041C0.00704211 11.2451 -0.000816264 11.2889 6.6992e-05 11.3329L0.00140017 12.9988C0.00140017 13.547 0.453022 13.9987 1.0013 13.9987H7.6673C8.11792 14.0053 8.11792 13.3254 7.6673 13.3321H1.0013C0.810986 13.3321 0.668 13.1891 0.668 12.9988L0.667334 11.3329C0.66823 11.2883 0.660139 11.2439 0.643539 11.2024C0.626939 11.1609 0.602171 11.1232 0.570705 11.0915C0.53924 11.0598 0.50172 11.0347 0.460376 11.0178C0.419031 11.0008 0.374706 10.9924 0.330034 10.993ZM11.001 7.99857C9.34813 7.99857 8.00193 9.34544 8.00193 10.9983C8.00193 12.6511 9.34846 14 11.001 14C12.6538 14 14 12.6511 14 10.9983C14 9.34544 12.6535 7.99857 11.001 7.99857ZM11.001 8.66584C11.3075 8.66514 11.6111 8.72499 11.8944 8.84196C12.1777 8.95892 12.4351 9.1307 12.6518 9.34743C12.8685 9.56416 13.0403 9.82156 13.1573 10.1049C13.2743 10.3882 13.3341 10.6918 13.3334 10.9983C13.3341 11.3049 13.2743 11.6086 13.1574 11.8921C13.0405 12.1755 12.8687 12.433 12.652 12.6499C12.4353 12.8668 12.1779 13.0388 11.8946 13.156C11.6113 13.2731 11.3076 13.3332 11.001 13.3327C10.6944 13.3332 10.3907 13.2731 10.1073 13.156C9.82402 13.0388 9.56661 12.8668 9.3499 12.6499C9.13319 12.433 8.96145 12.1755 8.84452 11.8921C8.72759 11.6086 8.66779 11.3049 8.66853 10.9983C8.66783 10.6918 8.72768 10.3882 8.84465 10.1049C8.96161 9.82156 9.13339 9.56416 9.35012 9.34743C9.56685 9.1307 9.82425 8.95892 10.1076 8.84196C10.3909 8.72499 10.6945 8.66514 11.001 8.66584ZM12.0535 9.95738C11.9672 9.9602 11.8854 9.9964 11.8252 10.0584L10.6467 11.2366L10.1767 10.7646C10.1458 10.7332 10.109 10.7082 10.0684 10.6911C10.0278 10.674 9.98418 10.665 9.94011 10.6648C9.89604 10.6646 9.85236 10.6732 9.8116 10.6899C9.77084 10.7067 9.7338 10.7313 9.70261 10.7625C9.67143 10.7936 9.64671 10.8306 9.6299 10.8714C9.61308 10.9121 9.6045 10.9558 9.60463 10.9999C9.60477 11.0439 9.61363 11.0875 9.6307 11.1282C9.64777 11.1688 9.67272 11.2057 9.7041 11.2366L10.4107 11.9429C10.4416 11.9739 10.4784 11.9984 10.5189 12.0152C10.5593 12.032 10.6027 12.0406 10.6465 12.0406C10.6903 12.0406 10.7337 12.032 10.7741 12.0152C10.8146 11.9984 10.8514 11.9739 10.8823 11.9429L12.2978 10.5303C12.3464 10.4834 12.3797 10.4229 12.3931 10.3567C12.4065 10.2905 12.3995 10.2218 12.373 10.1597C12.3465 10.0976 12.3018 10.045 12.2448 10.0088C12.1877 9.97271 12.121 9.95477 12.0535 9.95738Z" fill="black"/>
</svg>
