<svg width="19" height="19" viewBox="0 0 19 19" fill="none" xmlns="http://www.w3.org/2000/svg">
<g clip-path="url(#clip0_9330_8012)">
<path d="M16.625 13.1605V5.83935C16.625 5.734 16.597 5.63055 16.5438 5.5396C16.4906 5.44866 16.4142 5.37351 16.3223 5.32186L9.79109 1.64803C9.70222 1.59804 9.60197 1.57178 9.5 1.57178C9.39803 1.57178 9.29778 1.59804 9.20891 1.64803L2.67766 5.32186C2.58583 5.37351 2.50941 5.44866 2.45622 5.5396C2.40303 5.63055 2.375 5.734 2.375 5.83935V13.1605C2.375 13.2658 2.40303 13.3693 2.45622 13.4602C2.50941 13.5512 2.58583 13.6263 2.67766 13.678L9.20891 17.3518C9.29778 17.4018 9.39803 17.4281 9.5 17.4281C9.60197 17.4281 9.70222 17.4018 9.79109 17.3518L16.3223 13.678C16.4142 13.6263 16.4906 13.5512 16.5438 13.4602C16.597 13.3693 16.625 13.2658 16.625 13.1605Z" stroke="#5B9EE1" stroke-linecap="round" stroke-linejoin="round"/>
<path d="M13.1384 11.3192V7.4598L5.9375 3.48828" stroke="#5B9EE1" stroke-linecap="round" stroke-linejoin="round"/>
<path d="M16.5429 5.53883L9.57023 9.50011L2.45703 5.53809" stroke="#5B9EE1" stroke-linecap="round" stroke-linejoin="round"/>
<path d="M9.56969 9.5L9.5 17.4281" stroke="#5B9EE1" stroke-linecap="round" stroke-linejoin="round"/>
</g>
<defs>
<clipPath id="clip0_9330_8012">
<rect width="19" height="19" fill="white"/>
</clipPath>
</defs>
</svg>
