<svg width="156" height="156" viewBox="0 0 156 156" fill="none" xmlns="http://www.w3.org/2000/svg">
<path d="M117.819 92.7478C106.977 92.7478 98.1555 101.569 98.1555 112.412C98.1555 123.255 106.977 132.076 117.819 132.076C128.664 132.076 137.483 123.255 137.483 112.412C137.483 101.569 128.662 92.7478 117.819 92.7478ZM117.819 122.244C112.397 122.244 107.987 117.834 107.987 112.412C107.987 106.99 112.397 102.58 117.819 102.58C123.242 102.58 127.651 106.99 127.651 112.412C127.651 117.834 123.242 122.244 117.819 122.244ZM50.6346 92.7478C39.7917 92.7478 30.9707 101.569 30.9707 112.412C30.9707 123.255 39.7917 132.076 50.6346 132.076C61.4775 132.076 70.2985 123.255 70.2985 112.412C70.2985 101.569 61.4775 92.7478 50.6346 92.7478ZM50.6346 122.244C45.2124 122.244 40.8027 117.834 40.8027 112.412C40.8027 106.99 45.2124 102.58 50.6346 102.58C56.0553 102.58 60.4666 106.99 60.4666 112.412C60.4666 117.834 56.0568 122.244 50.6346 122.244ZM131.061 36.4635C130.652 35.6496 130.024 34.9655 129.248 34.4875C128.473 34.0095 127.579 33.7564 126.668 33.7563H100.777V43.5883H123.637L137.023 70.2131L145.809 65.7952L131.061 36.4635Z" fill="#5B9EE1"/>
<path d="M65.874 107.66H103.072V117.492H65.874V107.66ZM35.8864 107.66H18.8446C16.1292 107.66 13.9288 109.861 13.9288 112.576C13.9288 115.291 16.1295 117.491 18.8446 117.491H35.8867C38.6021 117.491 40.8025 115.291 40.8025 112.576C40.8025 109.86 38.6018 107.66 35.8864 107.66ZM154.968 77.6066L145.298 65.1528C144.839 64.5607 144.251 64.0816 143.578 63.7521C142.905 63.4226 142.165 63.2515 141.416 63.2519H105.693V28.8401C105.693 26.1248 103.493 23.9243 100.778 23.9243H18.8446C16.1292 23.9243 13.9288 26.1251 13.9288 28.8401C13.9288 31.5552 16.1295 33.756 18.8446 33.756H95.8614V68.1677C95.8614 70.8831 98.0621 73.0835 100.777 73.0835H139.009L146.168 82.3058V107.659H132.567C129.852 107.659 127.651 109.86 127.651 112.575C127.651 115.29 129.852 117.491 132.567 117.491H151.084C153.799 117.491 156 115.29 156 112.575V80.6218C156 79.5304 155.636 78.4686 154.968 77.6066ZM35.5589 82.7522H12.9453C10.2299 82.7522 8.02943 84.9529 8.02943 87.668C8.02943 90.3834 10.2302 92.5838 12.9453 92.5838H35.5586C38.2739 92.5838 40.4744 90.3831 40.4744 87.668C40.4747 84.9529 38.2739 82.7522 35.5589 82.7522ZM46.8655 63.4158H4.91583C2.20076 63.4158 0 65.6165 0 68.3319C0 71.0473 2.20076 73.2477 4.91583 73.2477H46.8655C49.5809 73.2477 51.7813 71.047 51.7813 68.3319C51.7813 65.6168 49.5809 63.4158 46.8655 63.4158Z" fill="#5B9EE1"/>
<path d="M54.8948 44.0796H12.9451C10.2297 44.0796 8.0293 46.2803 8.0293 48.9954C8.0293 51.7108 10.2301 53.9112 12.9451 53.9112H54.8948C57.6102 53.9112 59.8106 51.7105 59.8106 48.9954C59.8109 46.2803 57.6102 44.0796 54.8948 44.0796Z" fill="#5B9EE1"/>
</svg>
