<svg width="8" height="8" viewBox="0 0 8 8" fill="none" xmlns="http://www.w3.org/2000/svg">
<path d="M7.59027 2.67955L5.40561 2.34678L4.42916 0.278289C4.25421 -0.0904157 3.74729 -0.0951027 3.57084 0.278289L2.5944 2.34678L0.409726 2.67955C0.017951 2.73892 -0.139058 3.24355 0.145054 3.53257L1.72561 5.14175L1.35178 7.41491C1.28449 7.82579 1.6987 8.13357 2.04561 7.9414L4 6.8681L5.95439 7.9414C6.30131 8.132 6.71551 7.82579 6.64822 7.41491L6.27439 5.14175L7.85495 3.53257C8.13906 3.24355 7.98205 2.73892 7.59027 2.67955ZM5.5043 4.87928L5.85869 7.04151L4 6.02133L2.14131 7.04151L2.4957 4.87928L0.991407 3.34822L3.06991 3.03264L4 1.06413L4.93009 3.03264L7.00859 3.34822L5.5043 4.87928Z" fill="#EEE733"/>
</svg>
