<svg width="17" height="16" viewBox="0 0 17 16" fill="none" xmlns="http://www.w3.org/2000/svg">
<path d="M10.625 10.6786C10.625 10.9746 10.3873 11.2143 10.0938 11.2143H6.90625C6.61273 11.2143 6.375 10.9746 6.375 10.6786V9.07143H0V13.8929C0 14.75 0.74375 15.5 1.59375 15.5H15.4062C16.2563 15.5 17 14.75 17 13.8929V9.07143H10.625V10.6786ZM15.4062 3.71429H12.75V2.10714C12.75 1.25 12.0063 0.5 11.1562 0.5H5.84375C4.99375 0.5 4.25 1.25 4.25 2.10714V3.71429H1.59375C0.74375 3.71429 0 4.46429 0 5.32143V8H17V5.32143C17 4.46429 16.2563 3.71429 15.4062 3.71429ZM10.625 3.71429H6.375V2.64286H10.625V3.71429Z" fill="black"/>
</svg>
