<svg width="29" height="20" viewBox="0 0 29 20" fill="none" xmlns="http://www.w3.org/2000/svg">
<path d="M17.2764 7.06825L10.9053 14.1365H16.3684L22.7395 7.06825L16.3684 0H10.9053L17.2764 7.06825Z" fill="#1A2530" fill-opacity="0.6"/>
<path d="M8.9757 5.55651L6.09889 4.60707L7.9025 7.10882L6.12869 9.59551L8.9757 8.64606L10.7048 11.1478V8.05827L13.6114 7.10882L10.7048 6.14431V3.06982L8.9757 5.55651ZM1.8081 17.0998C2.06021 17.0998 2.30796 17.222 2.47312 17.4271L2.53399 17.5013L3.31198 16.9646L3.24243 16.8773C2.89907 16.4452 2.37315 16.1966 1.8081 16.1966C0.812767 16.1966 0 16.9777 0 17.9333C0 18.889 0.812767 19.6701 1.8081 19.6701C2.36879 19.6701 2.89039 19.4257 3.23374 19.0025L3.30329 18.9152L2.52526 18.3784L2.46443 18.4526C2.29492 18.6577 2.05585 18.7755 1.80378 18.7755C1.34305 18.7755 0.951871 18.3915 0.951871 17.9377C0.956233 17.4839 1.34741 17.0998 1.80814 17.0998H1.8081ZM10.1633 18.1269L8.76507 16.2773H7.87604V19.5489H8.73918V17.7168L10.0425 19.5489H11.0265V16.2773H10.1633V18.1269ZM13.4999 18.6067C13.4999 18.6329 13.4651 18.6373 13.4477 18.6373C13.4346 18.6373 13.4085 18.6329 13.3955 18.6024L12.6733 16.2773H11.6727L12.7386 19.5489H14.1611L15.227 16.2773H14.2264L13.4999 18.6067ZM21.5791 18.2098C21.9279 18.0091 22.1284 17.6427 22.0979 17.2414C22.0587 16.6961 21.5834 16.2773 21.0167 16.2773H19.3468V19.5489H20.2188V18.3712H20.6112C20.6504 18.3712 20.6853 18.3755 20.7115 18.4104L21.2739 19.5489H22.2549L21.5791 18.2098ZM20.9705 17.5294H20.195V17.1659H20.9705C21.0762 17.1659 21.1643 17.2386 21.1643 17.3477C21.1643 17.4567 21.0762 17.5294 20.9705 17.5294ZM26.415 19.5489H29V18.6765H27.2767V18.2839H28.8277V17.4987H27.2767V17.1498H29V16.2773H26.415V19.5489ZM24.4232 17.5209C23.9597 17.4167 23.8254 17.3472 23.8254 17.1952V17.1865C23.8254 17.065 23.9164 16.9694 24.1416 16.9694C24.4405 16.9694 24.6831 17.065 25.008 17.2604L25.5278 16.6438C25.1639 16.3529 24.7264 16.1966 24.1589 16.1966C23.3532 16.1966 22.8724 16.6481 22.8724 17.2734V17.282C22.8724 17.9724 23.4399 18.1765 24.1546 18.3371C24.6094 18.4413 24.735 18.5195 24.735 18.6584V18.6671C24.735 18.8104 24.5748 18.8972 24.3235 18.8972C23.9337 18.8972 23.5525 18.7583 23.2233 18.4934L22.6992 19.1143C23.1107 19.4834 23.7084 19.6701 24.3019 19.6701C25.1162 19.6701 25.688 19.262 25.688 18.5759V18.5673C25.688 17.9377 25.1942 17.6902 24.4232 17.5209ZM5.43245 16.1966C4.46309 16.1966 3.67549 16.9777 3.67549 17.9333C3.67549 18.8934 4.46309 19.6701 5.43245 19.6701C6.40181 19.6701 7.18942 18.889 7.18942 17.9333C7.18942 16.9733 6.40181 16.1966 5.43245 16.1966ZM5.43245 18.7815C4.97487 18.7815 4.60446 18.4111 4.60446 17.9535C4.60446 17.496 4.97487 17.1255 5.43245 17.1255C5.89003 17.1255 6.26045 17.496 6.26045 17.9535C6.26045 18.4111 5.89003 18.7815 5.43245 18.7815ZM15.8733 19.5489H18.4582V18.6765H16.7349V18.2839H18.2859V17.4987H16.7349V17.1498H18.4582V16.2773H15.8733V19.5489Z" fill="#1A2530" fill-opacity="0.6"/>
</svg>
