<svg width="36" height="19" viewBox="0 0 36 19" fill="none" xmlns="http://www.w3.org/2000/svg">
<path d="M10.8215 9.83296L14.2352 0.235352H11.9787L10.4165 4.40035L10.7636 0.235352H8.3914L4.97767 9.83296H7.17634L8.85427 5.18506L8.56497 9.71224L10.8215 9.83296ZM13.4831 9.83296L16.8968 0.235352H14.756L11.2844 9.83296H13.4831ZM19.674 9.22934L19.5583 4.40035L22.7985 0.476801L19.674 9.22934ZM35.4119 5.84905L24.4185 8.8068L24.7078 7.90137H22.3934L23.1456 5.6076H25.1129L25.6914 3.85709L23.7242 3.97782L24.4185 2.04622H26.3279L26.9644 0.295714H20.7734L18.5168 3.07238L19.6162 0.235352H17.4175L14.0038 9.83296H16.2603L17.7068 5.72832V9.83296H20.5998L10.2429 12.67C9.16284 12.9919 8.19849 13.1328 7.34992 13.0925C6.50129 13.0523 5.84557 12.8108 5.38269 12.3682C4.34122 11.5634 3.97473 10.336 4.28336 8.68608C4.4762 7.59956 4.90049 6.5533 5.55627 5.54724C4.01333 7.23738 2.8754 8.66598 2.14255 9.83296C1.33251 11.0805 0.811775 12.3078 0.580336 13.5151C0.348897 14.7223 0.483884 15.7082 0.985354 16.4728C2.33539 18.8069 5.28624 18.9678 9.83789 16.9557L35.4119 5.84905Z" fill="#1A2530" fill-opacity="0.6"/>
</svg>
