<svg width="34" height="16" viewBox="0 0 34 16" fill="none" xmlns="http://www.w3.org/2000/svg">
<path d="M18.254 0.0547427C18.1486 0.0702982 18.0474 0.458111 17.8439 0.660224C17.6952 0.805801 17.5091 0.797004 17.4107 0.977232C17.3731 1.04428 17.3852 1.15939 17.343 1.26946C17.2596 1.49035 16.9674 1.50998 16.9674 1.75039C16.9663 2.01022 17.2109 2.05957 17.4232 2.24419C17.5889 2.39224 17.6047 2.49447 17.8051 2.56657C17.9766 2.6245 18.2312 2.43461 18.4606 2.50295C18.6486 2.55873 18.8287 2.59907 18.8714 2.79249C18.9089 2.97101 18.8687 3.24703 18.6404 3.21517C18.5635 3.20638 18.2295 3.09427 17.8201 3.13793C17.3254 3.19415 16.7611 3.35539 16.7058 3.90712C16.6754 4.21501 17.0568 4.57836 17.4249 4.50445C17.6792 4.45467 17.559 4.15429 17.6972 4.00871C17.879 3.82173 18.9089 4.66065 19.8657 4.66065C20.2687 4.66065 20.5684 4.55873 20.8661 4.24709C20.894 4.22306 20.9278 4.17221 20.9708 4.16877C21.0115 4.17221 21.0822 4.21222 21.1056 4.22917C21.876 4.8486 22.4589 6.09153 25.2919 6.10569C25.6905 6.10805 26.144 6.29847 26.5149 6.6364C26.8454 6.94193 27.0384 7.41771 27.2264 7.90003C27.5102 8.62373 28.0178 9.32791 28.7884 10.1112C28.8303 10.1532 29.4647 10.6463 29.5155 10.6829C29.5233 10.6886 29.5701 10.7997 29.5538 10.8617C29.5351 11.3318 29.4667 12.6976 30.4851 12.7596C30.734 12.7721 30.669 12.597 30.669 12.4769C30.6684 12.2387 30.625 12.0024 30.7502 11.7585C30.9217 11.4236 30.3866 11.2694 30.4021 10.545C30.4133 10.0048 29.9595 10.097 29.7295 9.68547C29.5968 9.4471 29.4789 9.32072 29.4873 9.02914C29.5392 7.38831 29.1382 6.30995 28.9384 6.04508C28.7823 5.84532 28.6533 5.76604 28.7957 5.67357C29.6459 5.11175 29.8386 4.58984 29.8386 4.58984C30.2908 3.52746 30.6971 2.55712 31.2577 2.12973C31.3703 2.04133 31.66 1.82527 31.8374 1.74063C32.3607 1.49399 32.6357 1.34434 32.7878 1.19672C33.0279 0.962642 33.2182 0.473988 32.9875 0.177899C32.7011 -0.187492 32.2055 0.102374 31.9872 0.232182C30.4245 1.15939 30.1942 2.79518 29.653 3.73472C29.2212 4.48514 28.519 5.03655 27.8913 5.08161C27.4212 5.11647 26.9135 5.02132 26.4086 4.79946C25.1802 4.26092 24.5082 3.56576 24.349 3.44271C24.0191 3.18803 21.4574 0.672775 19.3814 0.570109C19.3814 0.570109 19.1237 0.0539918 19.059 0.0458386C18.9073 0.0262066 18.7519 0.353728 18.6404 0.392027C18.5357 0.426571 18.3597 0.0373636 18.254 0.0546355V0.0547427ZM9.11556 15.0656C8.9202 15.0609 8.75424 14.9007 8.75424 14.7026L8.75489 8.22723H6.62058V15.3647C6.62058 15.7149 6.90401 16 7.25191 16H10.9817C11.3318 16 11.6119 15.7149 11.6119 15.3647V8.22712H9.47966L9.47795 14.7026C9.47795 14.9007 9.31198 15.0609 9.11556 15.0656ZM16.2605 8.22723H13.031C12.6482 8.22723 12.337 8.53802 12.337 8.92411V16H14.4734V9.50943C14.4737 9.46232 14.4832 9.41573 14.5015 9.37233C14.5198 9.32892 14.5465 9.28955 14.58 9.25645C14.6136 9.22336 14.6533 9.19719 14.6969 9.17945C14.7406 9.16171 14.7873 9.15273 14.8344 9.15305C15.0336 9.15305 15.1938 9.30688 15.198 9.50395V16H17.3254V9.50395C17.3281 9.30688 17.4879 9.15315 17.687 9.15315C17.8841 9.15315 18.0475 9.31053 18.0488 9.50932V16H20.1851V8.92411C20.1851 8.53802 19.8728 8.22712 19.4908 8.22712H16.2606L16.2605 8.22723ZM5.1972 14.0469H3.04101V16H0.908203V8.22723H5.21072C5.59585 8.22723 5.89655 8.54016 5.89655 8.92733V13.3462C5.89681 13.4382 5.8789 13.5294 5.84385 13.6144C5.80881 13.6995 5.75732 13.7768 5.69233 13.8419C5.62735 13.907 5.55015 13.9586 5.46517 13.9938C5.38018 14.029 5.28908 14.0471 5.1971 14.047L5.1972 14.0469ZM3.76493 9.52294C3.76556 9.4749 3.75671 9.42721 3.73888 9.3826C3.72105 9.33798 3.69458 9.29733 3.66101 9.26296C3.62743 9.2286 3.5874 9.2012 3.54321 9.18234C3.49902 9.16348 3.45155 9.15352 3.4035 9.15305H3.04112V13.0844H3.4035C3.59189 13.0844 3.76664 12.9347 3.76493 12.7193V9.52294Z" fill="#1A2530" fill-opacity="0.6"/>
<path d="M23.7657 15.9999V14.0485H23.0406V15.9999H20.9087V8.92404C20.9087 8.53794 21.2199 8.22705 21.6027 8.22705H25.204C25.5874 8.22705 25.8983 8.53794 25.8983 8.92404V15.9999H23.7657ZM23.7657 13.0857V9.50656C23.7607 9.30885 23.6015 9.15683 23.4024 9.15683C23.2052 9.15683 23.0427 9.31486 23.0406 9.51236V13.0857H23.7657Z" fill="#1A2530" fill-opacity="0.6"/>
</svg>
